<svg data-noselect="" viewBox="0 0 648.5 233" width="648.5" height="233" preserveAspectRatio="none" version="1.1" xmlns="http://www.w3.org/2000/svg" style="background: rgba(255, 255, 255, 0);"><defs></defs> <g id="shape_jkioiY3DU0" transform="translate(30,30) rotate(0,130,86.5) scale(1,1)" filter="" style="cursor: move; opacity: 1;"><g><rect fill="rgba(0,0,0,0)" width="280" height="193" x="-10" y="-10"></rect><svg version="1.1" id="图层_1" xmlns="http://www.w3.org/2000/svg" xmlns:xlink="http://www.w3.org/1999/xlink" x="0px" y="0px" width="260" height="173" viewBox="0 0 283.46 226.77" style="enable-background:new 0 0 283.46 226.77;" xml:space="preserve" preserveAspectRatio="none" data-parent="shape_jkioiY3DU0">
<g>
	<ellipse style="fill-rule:evenodd;clip-rule:evenodd;fill:#BBBCBF;" cx="148.493" cy="186.406" rx="58.698" ry="3.452"></ellipse>
	<g>
		<g>
			
				<linearGradient id="SVGID_1_" gradientUnits="userSpaceOnUse" x1="-148.145" y1="-65.5045" x2="-16.4196" y2="-197.2299" gradientTransform="matrix(1 0 0 1 215.9866 222.9297)">
				<stop offset="0.0484" style="stop-color:#563E8F"></stop>
				<stop offset="0.3978" style="stop-color:#B24490"></stop>
				<stop offset="0.7151" style="stop-color:#CB7F2C"></stop>
				<stop offset="1" style="stop-color:#C1D136"></stop>
			</linearGradient>
			<path style="fill-rule:evenodd;clip-rule:evenodd;fill:url(#SVGID_1_);" d="M141.008,51.681l10.542-5.871l11.909,1.943
				l-2.332-11.842l5.53-10.722l-11.982-1.445l-8.492-8.571l-5.073,10.95l-10.78,5.427l8.85,8.207L141.008,51.681z M154.767,124.161
				c-46.757,60.667-85.312,3.885-68.902-25.049c11.934-21.062,52.049-16.147,72.895,4.892
				c-18.71-27.433-39.794-37.642-57.907-38.462c7.815-8.144,9.673-20.771,3.747-31.036c-7.191-12.455-23.114-16.722-35.566-9.533
				c-12.456,7.191-16.722,23.114-9.531,35.569c3.229,5.592,8.218,9.531,13.867,11.527c-4.761,2.757-8.697,6.177-11.518,9.867
				c-18.602,24.326-6.622,67.581,16.442,85.359c34.664,26.719,72.128-14.127,90.536-41.332l-4.93-13.144
				C160.97,116.293,157.929,120.066,154.767,124.161z M220.629,83.155c6.054-3.592,10.112-10.191,10.112-17.741
				c0-11.386-9.229-20.615-20.615-20.615s-20.615,9.229-20.615,20.615c0,6.77,3.263,12.778,8.302,16.536
				c-6.809,2.499-13.513,7.12-18.67,13.392c1.743,3.357,3.73,6.35,5.846,9.146c13.729-14.734,28.846-11.521,23.579,9.07
				c-11.205,43.837-52.247-51.931-55.416-62.111c2.448,18.304,6.883,41,13.305,57.865c10.078,26.467,23.811,47.208,39.324,40.556
				c9.698-4.16,17.613-17.883,21.134-31.661C231.727,99.388,228.022,88.241,220.629,83.155z"></path>
		</g>
	</g>
	<linearGradient id="SVGID_2_" gradientUnits="userSpaceOnUse" x1="168.8318" y1="140.5566" x2="81.5966" y2="140.5566">
		<stop offset="0" style="stop-color:#EE9533"></stop>
		<stop offset="0.5591" style="stop-color:#683189"></stop>
		<stop offset="1" style="stop-color:#423288"></stop>
	</linearGradient>
	<path style="fill:url(#SVGID_2_);" d="M154.768,124.161c-39.75,51.577-73.573,18.265-72.729-10.652
		c-4.412,30.95,24.836,74.003,58.192,45.402c11.535-9.889,21.491-22.442,28.601-32.948l-4.931-13.144
		C160.97,116.293,157.929,120.066,154.768,124.161z"></path>
</g>
</svg></g> <!----></g><g id="shapge_ldaNd8npyr" transform="translate(246,30) rotate(0,122.5,37.144775390625) scale(1,1)" filter="" style="cursor: move; opacity: 1;"><g><svg xmlns="http://www.w3.org/2000/svg" version="1.1" xmlns:xlink="http://www.w3.org/1999/xlink" overflow="hidden" style="top:0; left: 0" width="245" height="74.28955078125" viewBox="0 0 116 35.173828125" preserveAspectRatio="none" data-parent="shapge_ldaNd8npyr"><rect fill="rgba(0,0,0,0)" width="116" height="35.173828125"></rect> <rect opacity="0"></rect><g transform="translate(0 0)" data-width="116"><path fill="#B24490" d="M11.38-19.31L11.38-19.31L11.38-19.31Q11.53-20.73 11.38-22.12L11.38-22.12L11.38-22.12Q12.57-21.89 13.79-21.89L13.79-21.89L25.40-21.89L25.40-21.89Q25.38-17.39 24.04-13.11L24.04-13.11L24.04-13.11Q22.71-8.84 20.25-5.18L20.25-5.18L20.25-5.18Q23.62-0.88 28.89 2.24L28.89 2.24L28.89 2.24Q27.22 2.83 26.34 4.39L26.34 4.39L26.34 4.39Q21.78 1.56 18.52-2.86L18.52-2.86L18.52-2.86Q14.39 2.18 8.52 5.07L8.52 5.07L8.52 5.07Q7.31 3.46 5.61 2.38L5.61 2.38L5.61 2.38Q12.40 0.31 17.02-5.13L17.02-5.13L17.02-5.13Q13.08-11.70 12.69-19.51L12.69-19.51L12.69-19.51Q12.04-19.46 11.38-19.31ZM22.71-19.54L14.95-19.54L14.95-19.54Q15.18-12.94 18.69-7.36L18.69-7.36L18.69-7.36Q22.40-12.89 22.71-19.54L22.71-19.54ZM6.20-2.10L4.59 2.44L4.59 2.44Q2.86 1.67 0.85 1.22L0.85 1.22L2.95-3.14L7.62-13.34L9.66-12.09L6.20-2.10ZM2.46-16.74L5.92-13.11L3.37-11.78L-0.11-15.43L2.46-16.74ZM9.35-17.96L6.51-16.99L6.51-16.99Q5.10-19.29 3.20-21.21L3.20-21.21L5.75-22.57L5.75-22.57Q7.79-20.45 9.35-17.96L9.35-17.96Z" transform="translate(0 27.923828125)"></path><path fill="#B24490" d="M25.91 2.44L24.33 4.02L24.33 4.02Q20.42 1.27 16.17-1.08L16.17-1.08L17.56-2.80L17.56-2.80Q21.89-0.37 25.91 2.44L25.91 2.44ZM15.94 4.42L15.94 4.42L15.94 4.42Q14.61 4.28 13.25 4.42L13.25 4.42L13.25 4.42Q13.54 1.67 13.48-1.30L13.48-1.30L13.48-1.30Q11.38 1.13 8.57 2.76L8.57 2.76L8.57 2.76Q5.75 4.39 2.49 4.84L2.49 4.84L2.49 4.84Q2.41 3.68 1.95 2.63L1.95 2.63L1.95 2.63Q4.81 2.46 7.36 1.02L7.36 1.02L7.36 1.02Q9.91-0.42 11.61-2.89L11.61-2.89L5.18-2.89L5.18-2.89Q4.33-2.89 3.51-2.75L3.51-2.75L3.51-2.75Q3.60-3.57 3.54-4.30L3.54-4.30L3.54-4.30Q2.46-3.74 1.33-3.34L1.33-3.34L1.33-3.34Q0.96-4.64 0.14-5.75L0.14-5.75L0.14-5.75Q5.30-7.36 8.58-11.53L8.58-11.53L2.29-11.53L2.29-11.53Q1.44-11.53 0.62-11.36L0.62-11.36L0.62-11.36Q0.74-12.32 0.62-13.31L0.62-13.31L0.62-13.31Q1.44-13.14 2.29-13.14L2.29-13.14L9.71-13.14L9.71-13.14Q10.39-14.25 10.90-15.41L10.90-15.41L5.41-15.41L5.41-15.41Q4.56-15.41 3.74-15.26L3.74-15.26L3.74-15.26Q3.85-16.23 3.74-17.19L3.74-17.19L3.74-17.19Q4.56-17.02 5.41-17.02L5.41-17.02L11.50-17.02L11.50-17.02Q11.84-18.15 12.04-19.31L12.04-19.31L3.17-19.31L3.17-19.31Q2.32-19.31 1.50-19.14L1.50-19.14L1.50-19.14Q1.59-20.11 1.50-21.07L1.50-21.07L1.50-21.07Q2.32-20.93 3.17-20.93L3.17-20.93L12.21-20.93L12.21-20.93Q12.29-22.03 12.21-23.17L12.21-23.17L12.21-23.17Q13.68-23.00 15.18-23.17L15.18-23.17L15.18-23.17Q15.09-22.03 14.92-20.93L14.92-20.93L19.12-20.93L19.12-20.93Q22.88-20.93 26.68-21.07L26.68-21.07L26.68-21.07Q26.59-20.11 26.68-19.14L26.68-19.14L26.68-19.14Q22.88-19.31 19.12-19.31L19.12-19.31L14.61-19.31L14.61-19.31Q14.36-18.15 13.99-17.02L13.99-17.02L17.45-17.02L17.45-17.02Q20.42-17.02 23.36-17.19L23.36-17.19L23.36-17.19Q23.25-16.23 23.36-15.26L23.36-15.26L23.36-15.26Q20.42-15.41 17.45-15.41L17.45-15.41L13.40-15.41L13.40-15.41Q12.91-14.25 12.32-13.14L12.32-13.14L19.51-13.14L19.51-13.14Q23.56-13.14 27.61-13.31L27.61-13.31L27.61-13.31Q27.53-12.35 27.61-11.36L27.61-11.36L27.61-11.36Q24.02-11.50 20.42-11.53L20.42-11.53L20.42-11.53Q21.78-9.88 23.65-8.85L23.65-8.85L23.65-8.85Q25.52-7.82 28.52-6.77L28.52-6.77L28.52-6.77Q27.22-5.92 26.76-4.42L26.76-4.42L26.76-4.42Q21.69-6.32 17.93-11.53L17.93-11.53L11.36-11.53L11.36-11.53Q10.22-9.80 8.84-8.33L8.84-8.33L8.84-8.33Q14.13-7.99 18.52-10.65L18.52-10.65L18.52-10.65Q18.97-9.40 19.71-8.27L19.71-8.27L19.71-8.27Q17.70-7.45 15.72-6.94L15.72-6.94L15.72-4.53L18.61-4.53L18.61-4.53Q21.83-4.53 25.09-4.67L25.09-4.67L25.09-4.67Q24.98-3.71 25.09-2.75L25.09-2.75L25.09-2.75Q21.83-2.89 18.61-2.89L18.61-2.89L15.72-2.89L15.72-2.89Q15.63 0.91 15.94 4.42ZM5.18-4.53L13.48-4.53L13.48-6.46L13.48-6.46Q10.65-5.98 7.99-6.15L7.99-6.15L7.99-6.15Q8.07-6.83 8.04-7.53L8.04-7.53L8.04-7.53Q6.20-5.81 4.05-4.59L4.05-4.59L4.05-4.59Q4.62-4.53 5.18-4.53L5.18-4.53Z" transform="translate(29 27.923828125)"></path><path fill="#B24490" d="M16.14 4.42L16.14 4.42L16.14 4.42Q14.81 4.28 13.51 4.42L13.51 4.42L13.51 4.42Q13.82 1.70 13.74-1.25L13.74-1.25L13.74-1.25Q8.04 3.82 2.35 4.76L2.35 4.76L2.35 4.76Q2.21 3.46 1.61 2.24L1.61 2.24L1.61 2.24Q8.55 1.30 12.23-3.23L12.23-3.23L3.34-3.23L3.34-3.23Q2.63-3.23 1.93-3.09L1.93-3.09L1.93-3.09Q2.01-3.91 1.93-4.76L1.93-4.76L1.93-4.76Q2.63-4.62 3.34-4.62L3.34-4.62L13.23-4.62L13.37-4.87L13.65-4.62L13.74-4.62L13.74-4.62Q13.74-5.81 13.57-6.94L13.57-6.94L7.70-6.94L7.70-6.94Q7.73-6.49 7.79-6.03L7.79-6.03L7.79-6.03Q6.49-6.17 5.15-6.03L5.15-6.03L5.15-6.03Q5.38-7.99 5.38-9.94L5.38-9.94L5.38-14.58L5.38-14.58Q3.57-12.83 1.39-11.64L1.39-11.64L1.39-11.64Q0.93-12.69 0.14-13.51L0.14-13.51L0.14-13.51Q3.29-14.84 5.38-17.70L5.38-17.70L5.38-19.65L5.38-19.65Q5.95-19.65 6.57-19.65L6.57-19.65L6.57-19.65Q7.48-21.47 7.87-23.45L7.87-23.45L7.87-23.45Q9.09-23.00 10.39-22.83L10.39-22.83L10.39-22.83Q9.88-21.18 9.12-19.65L9.12-19.65L14.84-19.65L14.84-19.65Q13.65-21.30 12.18-22.80L12.18-22.80L14.02-24.07L14.02-24.07Q15.92-22.17 17.39-20.02L17.39-20.02L16.65-19.65L19.09-19.65L19.09-19.65Q21.81-19.65 24.55-19.82L24.55-19.82L24.55-19.82Q24.44-18.92 24.55-18.01L24.55-18.01L24.55-18.01Q21.81-18.15 19.09-18.15L19.09-18.15L17.11-18.15L17.11-16.11L18.32-16.11L18.32-16.11Q20.90-16.11 23.45-16.26L23.45-16.26L23.45-16.26Q23.36-15.43 23.45-14.58L23.45-14.58L23.45-14.58Q20.90-14.73 18.32-14.73L18.32-14.73L17.11-14.73L17.11-12.35L18.24-12.35L18.24-12.35Q20.76-12.35 23.31-12.49L23.31-12.49L23.31-12.49Q23.22-11.64 23.31-10.82L23.31-10.82L23.31-10.82Q20.76-10.96 18.24-10.96L18.24-10.96L17.11-10.96L17.11-8.47L19.34-8.47L19.34-8.47Q22.12-8.47 24.89-8.61L24.89-8.61L24.89-8.61Q24.81-7.70 24.89-6.80L24.89-6.80L24.89-6.80Q22.12-6.94 19.34-6.94L19.34-6.94L16.09-6.94L16.09-6.94Q15.89-5.81 15.92-4.62L15.92-4.62L20.42-4.62L20.42-4.62Q24.38-4.62 28.38-4.76L28.38-4.76L28.38-4.76Q28.26-3.91 28.38-3.09L28.38-3.09L28.38-3.09Q24.38-3.23 20.42-3.23L20.42-3.23L17.39-3.23L17.39-3.23Q21.10 0.31 28.21 1.98L28.21 1.98L28.21 1.98Q27.02 2.95 26.68 4.42L26.68 4.42L26.68 4.42Q20.82 2.89 15.92-1.95L15.92-1.95L15.92-1.95Q15.83 1.39 16.14 4.42ZM7.62-8.47L14.92-8.47L14.92-10.96L7.56-10.96L7.62-8.47ZM7.56-12.35L14.92-12.35L14.92-14.73L7.56-14.73L7.56-12.35ZM7.56-16.11L14.92-16.11L14.92-18.15L8.27-18.15L8.27-18.15Q7.93-17.64 7.56-17.13L7.56-17.13L7.56-16.11Z" transform="translate(58 27.923828125)"></path><path fill="#B24490" d="M12.09-2.10L12.09-2.10L12.09-2.10Q14.22-1.78 15.58-2.01L15.58-2.01L15.58-2.01Q16.00-2.10 16.03-2.52L16.03-2.52L16.03-10.71L16.03-10.71Q11.47-5.24 6.51-3.12L6.51-3.12L6.51-3.12Q6.00-4.53 5.04-5.69L5.04-5.69L5.04-5.69Q8.27-6.83 10.83-8.92L10.83-8.92L10.83-8.92Q13.40-11.02 14.92-13.91L14.92-13.91L7.48-13.91L7.48-13.91Q6.40-13.91 5.32-13.68L5.32-13.68L5.32-13.68Q5.47-14.92 5.32-16.20L5.32-16.20L5.32-16.20Q6.40-15.97 7.48-15.97L7.48-15.97L16.03-15.97L16.03-15.97Q16.09-17.90 15.77-19.60L15.77-19.60L15.77-19.60Q17.25-19.43 18.72-19.60L18.72-19.60L18.72-19.60Q18.41-17.90 18.49-15.97L18.49-15.97L18.49-15.97Q20.73-16.00 22.97-16.20L22.97-16.20L22.97-16.20Q22.83-14.92 22.97-13.68L22.97-13.68L22.97-13.68Q20.73-13.85 18.49-13.88L18.49-13.88L18.49-2.86L18.49-2.86Q18.61 0.25 16.17 0.62L16.17 0.62L16.17 0.62Q14.53 0.85 13.03 0.71L13.03 0.71L12.26 0.71L12.26 0.71Q12.38-0.71 12.09-2.10ZM23.70-20.42L4.62-20.42L4.62 0.79L23.65 0.79L23.70-20.42ZM2.15 2.89L2.15-22.51L26.20-22.51L26.11 2.89L2.15 2.89Z" transform="translate(87 27.923828125)"></path></g></svg></g> <!----></g><g id="shapge_60av7RNzpE" transform="translate(225,98.49999618530273) rotate(0,208.252685546875,36.813871516753494) scale(1,1)" filter="" style="cursor: move; opacity: 1;"><g><svg xmlns="http://www.w3.org/2000/svg" version="1.1" xmlns:xlink="http://www.w3.org/1999/xlink" overflow="hidden" style="top:0; left: 0" width="416.50537109375" height="73.62774303350699" viewBox="0 0 143.50537109375 25.3681640625" preserveAspectRatio="none" data-parent="shapge_60av7RNzpE"><rect fill="rgba(0,0,0,0)" width="143.50537109375" height="25.3681640625"></rect> <rect opacity="0"></rect><g transform="translate(0 0)" data-width="93.50537109375"><path fill="#BBBCBF" d="M12.39-13.78L12.39-15.54L17.43-15.54L17.43-13.78L15.96-13.78L15.96-1.76L17.43-1.76L17.43 0L12.39 0L12.39-1.76L13.95-1.76L13.95-7.35L4.95-7.35L4.95-1.76L6.51-1.76L6.51 0L1.47 0L1.47-1.76L2.94-1.76L2.94-13.78L1.47-13.78L1.47-15.54L6.51-15.54L6.51-13.78L4.95-13.78L4.95-9.07L13.95-9.07L13.95-13.78L12.39-13.78Z" transform="translate(0 20.1796875) skewX(-15)" stroke="#BBBCBF" stroke-width="2" stroke-linecap="round" stroke-linejoin="round"></path><path fill="#BBBCBF" d="M7.27 0L7.27-0.98L7.27-0.98Q6.67-0.42 5.93-0.06L5.93-0.06L5.93-0.06Q5.20 0.30 4.27 0.30L4.27 0.30L4.27 0.30Q3.49 0.30 2.84 0.05L2.84 0.05L2.84 0.05Q2.18-0.19 1.71-0.62L1.71-0.62L1.71-0.62Q1.24-1.05 0.98-1.61L0.98-1.61L0.98-1.61Q0.72-2.17 0.72-2.81L0.72-2.81L0.72-2.81Q0.72-3.49 0.92-4.01L0.92-4.01L0.92-4.01Q1.12-4.53 1.45-4.92L1.45-4.92L1.45-4.92Q1.78-5.30 2.23-5.56L2.23-5.56L2.23-5.56Q2.68-5.82 3.16-5.98L3.16-5.98L3.16-5.98Q3.65-6.14 4.16-6.21L4.16-6.21L4.16-6.21Q4.67-6.28 5.13-6.28L5.13-6.28L5.13-6.28Q5.87-6.28 6.37-6.23L6.37-6.23L6.37-6.23Q6.87-6.18 7.28-6.10L7.28-6.10L7.29-6.97L7.29-6.97Q7.29-7.54 7.13-7.95L7.13-7.95L7.13-7.95Q6.96-8.37 6.67-8.64L6.67-8.64L6.67-8.64Q6.37-8.91 5.95-9.04L5.95-9.04L5.95-9.04Q5.54-9.18 5.02-9.18L5.02-9.18L5.02-9.18Q4.54-9.18 4.10-9.11L4.10-9.11L4.10-9.11Q3.66-9.04 3.28-8.94L3.28-8.94L3.28-8.94Q2.89-8.83 2.57-8.69L2.57-8.69L2.57-8.69Q2.25-8.55 2.02-8.40L2.02-8.40L1.39-9.72L1.39-9.72Q1.77-9.97 2.23-10.18L2.23-10.18L2.23-10.18Q2.68-10.39 3.17-10.54L3.17-10.54L3.17-10.54Q3.67-10.68 4.19-10.77L4.19-10.77L4.19-10.77Q4.71-10.86 5.21-10.86L5.21-10.86L5.21-10.86Q6.13-10.86 6.87-10.64L6.87-10.64L6.87-10.64Q7.61-10.42 8.12-9.96L8.12-9.96L8.12-9.96Q8.63-9.50 8.91-8.78L8.91-8.78L8.91-8.78Q9.19-8.07 9.19-7.08L9.19-7.08L9.18-1.76L10.36-1.76L10.36 0L7.27 0ZM4.69-1.30L4.69-1.30L4.69-1.30Q5.07-1.30 5.44-1.39L5.44-1.39L5.44-1.39Q5.82-1.49 6.16-1.65L6.16-1.65L6.16-1.65Q6.50-1.80 6.79-2.01L6.79-2.01L6.79-2.01Q7.08-2.23 7.27-2.45L7.27-2.45L7.28-4.85L5.07-4.85L5.07-4.85Q4.51-4.85 4.06-4.73L4.06-4.73L4.06-4.73Q3.60-4.60 3.27-4.37L3.27-4.37L3.27-4.37Q2.93-4.13 2.75-3.78L2.75-3.78L2.75-3.78Q2.56-3.44 2.56-2.98L2.56-2.98L2.56-2.98Q2.56-2.56 2.72-2.25L2.72-2.25L2.72-2.25Q2.87-1.94 3.15-1.73L3.15-1.73L3.15-1.73Q3.44-1.52 3.82-1.41L3.82-1.41L3.82-1.41Q4.21-1.30 4.69-1.30Z" transform="translate(18.89794921875 20.1796875) skewX(-15)" stroke="#BBBCBF" stroke-width="2" stroke-linecap="round" stroke-linejoin="round"></path><path fill="#BBBCBF" d="M8.02 0L8.02-1.76L9.52-1.76L9.52-6.61L9.52-6.61Q9.52-7.83 8.90-8.46L8.90-8.46L8.90-8.46Q8.27-9.10 7.12-9.10L7.12-9.10L7.12-9.10Q6.45-9.10 5.77-8.78L5.77-8.78L5.77-8.78Q5.10-8.46 4.49-7.99L4.49-7.99L4.49-1.76L5.99-1.76L5.99 0L1.03 0L1.03-1.76L2.50-1.76L2.50-8.86L1.03-8.86L1.03-10.62L4.41-10.62L4.41-9.37L4.43-9.37L4.43-9.37Q4.77-9.67 5.15-9.94L5.15-9.94L5.15-9.94Q5.54-10.20 5.96-10.40L5.96-10.40L5.96-10.40Q6.38-10.59 6.83-10.71L6.83-10.71L6.83-10.71Q7.29-10.82 7.79-10.82L7.79-10.82L7.79-10.82Q8.64-10.82 9.33-10.58L9.33-10.58L9.33-10.58Q10.02-10.35 10.50-9.86L10.50-9.86L10.50-9.86Q10.98-9.38 11.24-8.63L11.24-8.63L11.24-8.63Q11.50-7.88 11.50-6.85L11.50-6.85L11.50-1.76L12.98-1.76L12.98 0L8.02 0Z" transform="translate(30.38232421875 20.1796875) skewX(-15)" stroke="#BBBCBF" stroke-width="2" stroke-linecap="round" stroke-linejoin="round"></path><path fill="#BBBCBF" d="M4.97-7.94L11.76-13.77L11.76-15.54L15.33-15.54L15.33-13.77L14.11-13.77L7.30-8.04L13.67-1.76L15.33-1.76L15.33 0L11.15 0L11.15-1.76L4.97-7.94ZM1.49-13.77L1.49-15.54L6.53-15.54L6.53-13.77L4.95-13.77L4.95-1.76L6.51-1.76L6.51 0L1.47 0L1.47-1.76L2.94-1.76L2.94-13.77L1.49-13.77Z" transform="translate(44.38916015625 20.1796875) skewX(-15)" stroke="#BBBCBF" stroke-width="2" stroke-linecap="round" stroke-linejoin="round"></path><path fill="#BBBCBF" d="M0.94-8.86L0.94-10.62L4.41-10.62L4.41-1.76L6.01-1.76L6.01 0L0.96 0L0.96-1.76L2.48-1.76L2.48-8.86L0.94-8.86ZM2.12-14.39L2.12-14.39L2.12-14.39Q2.12-14.65 2.23-14.89L2.23-14.89L2.23-14.89Q2.34-15.13 2.52-15.31L2.52-15.31L2.52-15.31Q2.70-15.49 2.94-15.60L2.94-15.60L2.94-15.60Q3.19-15.71 3.47-15.71L3.47-15.71L3.47-15.71Q3.73-15.71 3.97-15.60L3.97-15.60L3.97-15.60Q4.21-15.49 4.39-15.31L4.39-15.31L4.39-15.31Q4.57-15.13 4.68-14.89L4.68-14.89L4.68-14.89Q4.79-14.65 4.79-14.39L4.79-14.39L4.79-14.39Q4.79-14.11 4.68-13.86L4.68-13.86L4.68-13.86Q4.57-13.62 4.39-13.43L4.39-13.43L4.39-13.43Q4.21-13.24 3.97-13.13L3.97-13.13L3.97-13.13Q3.73-13.02 3.47-13.02L3.47-13.02L3.47-13.02Q3.19-13.02 2.94-13.13L2.94-13.13L2.94-13.13Q2.70-13.24 2.52-13.43L2.52-13.43L2.52-13.43Q2.34-13.62 2.23-13.86L2.23-13.86L2.23-13.86Q2.12-14.11 2.12-14.39Z" transform="translate(60.45703125 20.1796875) skewX(-15)" stroke="#BBBCBF" stroke-width="2" stroke-linecap="round" stroke-linejoin="round"></path><path fill="#BBBCBF" d="M8.02 0L8.02-1.76L9.52-1.76L9.52-6.61L9.52-6.61Q9.52-7.83 8.90-8.46L8.90-8.46L8.90-8.46Q8.27-9.10 7.12-9.10L7.12-9.10L7.12-9.10Q6.45-9.10 5.77-8.78L5.77-8.78L5.77-8.78Q5.10-8.46 4.49-7.99L4.49-7.99L4.49-1.76L5.99-1.76L5.99 0L1.03 0L1.03-1.76L2.50-1.76L2.50-8.86L1.03-8.86L1.03-10.62L4.41-10.62L4.41-9.37L4.43-9.37L4.43-9.37Q4.77-9.67 5.15-9.94L5.15-9.94L5.15-9.94Q5.54-10.20 5.96-10.40L5.96-10.40L5.96-10.40Q6.38-10.59 6.83-10.71L6.83-10.71L6.83-10.71Q7.29-10.82 7.79-10.82L7.79-10.82L7.79-10.82Q8.64-10.82 9.33-10.58L9.33-10.58L9.33-10.58Q10.02-10.35 10.50-9.86L10.50-9.86L10.50-9.86Q10.98-9.38 11.24-8.63L11.24-8.63L11.24-8.63Q11.50-7.88 11.50-6.85L11.50-6.85L11.50-1.76L12.98-1.76L12.98 0L8.02 0Z" transform="translate(67.19384765625 20.1796875) skewX(-15)" stroke="#BBBCBF" stroke-width="2" stroke-linecap="round" stroke-linejoin="round"></path><path fill="#BBBCBF" d="M8.80-0.78L8.80-0.93L8.80-0.93Q8.27-0.38 7.58-0.07L7.58-0.07L7.58-0.07Q6.89 0.24 6.01 0.24L6.01 0.24L6.01 0.24Q4.93 0.24 4.00-0.14L4.00-0.14L4.00-0.14Q3.08-0.51 2.39-1.24L2.39-1.24L2.39-1.24Q1.71-1.96 1.33-3.01L1.33-3.01L1.33-3.01Q0.94-4.06 0.94-5.41L0.94-5.41L0.94-5.41Q0.94-6.64 1.31-7.65L1.31-7.65L1.31-7.65Q1.68-8.66 2.36-9.38L2.36-9.38L2.36-9.38Q3.04-10.09 3.99-10.48L3.99-10.48L3.99-10.48Q4.94-10.88 6.11-10.88L6.11-10.88L6.11-10.88Q6.91-10.88 7.55-10.70L7.55-10.70L7.55-10.70Q8.19-10.52 8.80-10.08L8.80-10.08L8.80-10.62L10.71-10.62L10.71-0.42L10.71-0.42Q10.71 2.10 9.51 3.39L9.51 3.39L9.51 3.39Q8.32 4.69 5.79 4.69L5.79 4.69L5.79 4.69Q5.24 4.69 4.63 4.60L4.63 4.60L4.63 4.60Q4.03 4.52 3.44 4.34L3.44 4.34L3.44 4.34Q2.85 4.16 2.29 3.89L2.29 3.89L2.29 3.89Q1.73 3.61 1.26 3.21L1.26 3.21L2.29 1.66L2.29 1.66Q2.59 1.93 2.99 2.15L2.99 2.15L2.99 2.15Q3.38 2.38 3.83 2.54L3.83 2.54L3.83 2.54Q4.29 2.70 4.77 2.79L4.77 2.79L4.77 2.79Q5.25 2.88 5.73 2.88L5.73 2.88L5.73 2.88Q6.52 2.88 7.10 2.72L7.10 2.72L7.10 2.72Q7.68 2.55 8.05 2.14L8.05 2.14L8.05 2.14Q8.43 1.72 8.61 1.02L8.61 1.02L8.61 1.02Q8.80 0.31 8.80-0.78L8.80-0.78ZM6.25-1.43L6.25-1.43L6.25-1.43Q6.73-1.43 7.12-1.52L7.12-1.52L7.12-1.52Q7.51-1.61 7.82-1.76L7.82-1.76L7.82-1.76Q8.14-1.91 8.38-2.10L8.38-2.10L8.38-2.10Q8.62-2.30 8.80-2.51L8.80-2.51L8.80-8.33L8.80-8.33Q8.27-8.79 7.59-8.99L7.59-8.99L7.59-8.99Q6.91-9.20 6.19-9.20L6.19-9.20L6.19-9.20Q5.52-9.20 4.92-8.95L4.92-8.95L4.92-8.95Q4.33-8.70 3.88-8.21L3.88-8.21L3.88-8.21Q3.44-7.73 3.18-7.03L3.18-7.03L3.18-7.03Q2.92-6.34 2.92-5.43L2.92-5.43L2.92-5.43Q2.92-4.45 3.17-3.70L3.17-3.70L3.17-3.70Q3.41-2.95 3.86-2.45L3.86-2.45L3.86-2.45Q4.30-1.94 4.91-1.68L4.91-1.68L4.91-1.68Q5.53-1.43 6.25-1.43Z" transform="translate(81.20068359375 20.1796875) skewX(-15)" stroke="#BBBCBF" stroke-width="2" stroke-linecap="round" stroke-linejoin="round"></path></g></svg></g> <!----></g>  </svg>